<svg id="visual" viewBox="0 0 960 540" width="960" height="540" xmlns="http://www.w3.org/2000/svg" xmlns:xlink="http://www.w3.org/1999/xlink" version="1.1"><rect x="0" y="0" width="960" height="540" fill="#1191BB"></rect><defs><linearGradient id="grad1_0" x1="43.8%" y1="0%" x2="100%" y2="100%"><stop offset="14.444444444444446%" stop-color="#003049" stop-opacity="1"></stop><stop offset="85.55555555555554%" stop-color="#003049" stop-opacity="1"></stop></linearGradient></defs><defs><linearGradient id="grad1_1" x1="43.8%" y1="0%" x2="100%" y2="100%"><stop offset="14.444444444444446%" stop-color="#003049" stop-opacity="1"></stop><stop offset="85.55555555555554%" stop-color="#023d59" stop-opacity="1"></stop></linearGradient></defs><defs><linearGradient id="grad1_2" x1="43.8%" y1="0%" x2="100%" y2="100%"><stop offset="14.444444444444446%" stop-color="#054a68" stop-opacity="1"></stop><stop offset="85.55555555555554%" stop-color="#023d59" stop-opacity="1"></stop></linearGradient></defs><defs><linearGradient id="grad1_3" x1="43.8%" y1="0%" x2="100%" y2="100%"><stop offset="14.444444444444446%" stop-color="#054a68" stop-opacity="1"></stop><stop offset="85.55555555555554%" stop-color="#095779" stop-opacity="1"></stop></linearGradient></defs><defs><linearGradient id="grad1_4" x1="43.8%" y1="0%" x2="100%" y2="100%"><stop offset="14.444444444444446%" stop-color="#0c6589" stop-opacity="1"></stop><stop offset="85.55555555555554%" stop-color="#095779" stop-opacity="1"></stop></linearGradient></defs><defs><linearGradient id="grad1_5" x1="43.8%" y1="0%" x2="100%" y2="100%"><stop offset="14.444444444444446%" stop-color="#0c6589" stop-opacity="1"></stop><stop offset="85.55555555555554%" stop-color="#0e7399" stop-opacity="1"></stop></linearGradient></defs><defs><linearGradient id="grad1_6" x1="43.8%" y1="0%" x2="100%" y2="100%"><stop offset="14.444444444444446%" stop-color="#1082aa" stop-opacity="1"></stop><stop offset="85.55555555555554%" stop-color="#0e7399" stop-opacity="1"></stop></linearGradient></defs><defs><linearGradient id="grad1_7" x1="43.8%" y1="0%" x2="100%" y2="100%"><stop offset="14.444444444444446%" stop-color="#1082aa" stop-opacity="1"></stop><stop offset="85.55555555555554%" stop-color="#1191bb" stop-opacity="1"></stop></linearGradient></defs><defs><linearGradient id="grad2_0" x1="0%" y1="0%" x2="56.3%" y2="100%"><stop offset="14.444444444444446%" stop-color="#003049" stop-opacity="1"></stop><stop offset="85.55555555555554%" stop-color="#003049" stop-opacity="1"></stop></linearGradient></defs><defs><linearGradient id="grad2_1" x1="0%" y1="0%" x2="56.3%" y2="100%"><stop offset="14.444444444444446%" stop-color="#023d59" stop-opacity="1"></stop><stop offset="85.55555555555554%" stop-color="#003049" stop-opacity="1"></stop></linearGradient></defs><defs><linearGradient id="grad2_2" x1="0%" y1="0%" x2="56.3%" y2="100%"><stop offset="14.444444444444446%" stop-color="#023d59" stop-opacity="1"></stop><stop offset="85.55555555555554%" stop-color="#054a68" stop-opacity="1"></stop></linearGradient></defs><defs><linearGradient id="grad2_3" x1="0%" y1="0%" x2="56.3%" y2="100%"><stop offset="14.444444444444446%" stop-color="#095779" stop-opacity="1"></stop><stop offset="85.55555555555554%" stop-color="#054a68" stop-opacity="1"></stop></linearGradient></defs><defs><linearGradient id="grad2_4" x1="0%" y1="0%" x2="56.3%" y2="100%"><stop offset="14.444444444444446%" stop-color="#095779" stop-opacity="1"></stop><stop offset="85.55555555555554%" stop-color="#0c6589" stop-opacity="1"></stop></linearGradient></defs><defs><linearGradient id="grad2_5" x1="0%" y1="0%" x2="56.3%" y2="100%"><stop offset="14.444444444444446%" stop-color="#0e7399" stop-opacity="1"></stop><stop offset="85.55555555555554%" stop-color="#0c6589" stop-opacity="1"></stop></linearGradient></defs><defs><linearGradient id="grad2_6" x1="0%" y1="0%" x2="56.3%" y2="100%"><stop offset="14.444444444444446%" stop-color="#0e7399" stop-opacity="1"></stop><stop offset="85.55555555555554%" stop-color="#1082aa" stop-opacity="1"></stop></linearGradient></defs><defs><linearGradient id="grad2_7" x1="0%" y1="0%" x2="56.3%" y2="100%"><stop offset="14.444444444444446%" stop-color="#1191bb" stop-opacity="1"></stop><stop offset="85.55555555555554%" stop-color="#1082aa" stop-opacity="1"></stop></linearGradient></defs><g transform="translate(960, 0)"><path d="M0 486C-46.2 440.3 -92.4 394.6 -156.9 378.8C-221.4 363 -304.3 377.2 -343.7 343.7C-383 310.2 -378.9 229 -395.4 163.8C-411.9 98.6 -448.9 49.3 -486 0L0 0Z" fill="#1189b3"></path><path d="M0 425.3C-40.4 385.3 -80.8 345.3 -137.3 331.4C-193.7 317.6 -266.2 330 -300.7 300.7C-335.2 271.4 -331.6 200.4 -346 143.3C-360.4 86.3 -392.8 43.1 -425.2 0L0 0Z" fill="#0f7ba2"></path><path d="M0 364.5C-34.6 330.2 -69.3 295.9 -117.7 284.1C-166.1 272.3 -228.2 282.9 -257.7 257.7C-287.3 232.6 -284.2 171.8 -296.6 122.8C-308.9 73.9 -336.7 37 -364.5 0L0 0Z" fill="#0d6c91"></path><path d="M0 303.8C-28.9 275.2 -57.7 246.6 -98.1 236.7C-138.4 226.9 -190.2 235.7 -214.8 214.8C-239.4 193.8 -236.8 143.1 -247.1 102.4C-257.4 61.6 -280.6 30.8 -303.7 0L0 0Z" fill="#0a5e81"></path><path d="M0 243C-23.1 220.1 -46.2 197.3 -78.5 189.4C-110.7 181.5 -152.1 188.6 -171.8 171.8C-191.5 155.1 -189.5 114.5 -197.7 81.9C-205.9 49.3 -224.5 24.6 -243 0L0 0Z" fill="#075070"></path><path d="M0 182.3C-17.3 165.1 -34.6 148 -58.8 142C-83 136.1 -114.1 141.4 -128.9 128.9C-143.6 116.3 -142.1 85.9 -148.3 61.4C-154.5 37 -168.4 18.5 -182.2 0L0 0Z" fill="#044360"></path><path d="M0 121.5C-11.5 110.1 -23.1 98.6 -39.2 94.7C-55.4 90.8 -76.1 94.3 -85.9 85.9C-95.8 77.5 -94.7 57.3 -98.9 40.9C-103 24.6 -112.2 12.3 -121.5 0L0 0Z" fill="#013651"></path><path d="M0 60.8C-5.8 55 -11.5 49.3 -19.6 47.3C-27.7 45.4 -38 47.1 -43 43C-47.9 38.8 -47.4 28.6 -49.4 20.5C-51.5 12.3 -56.1 6.2 -60.7 0L0 0Z" fill="#003049"></path></g><g transform="translate(0, 540)"><path d="M0 -486C54.3 -457.2 108.7 -428.4 169.5 -409.3C230.4 -390.2 297.7 -380.8 343.7 -343.7C389.6 -306.5 414.1 -241.8 434.2 -179.9C454.4 -118 470.2 -59 486 0L0 0Z" fill="#1189b3"></path><path d="M0 -425.2C47.5 -400 95.1 -374.8 148.3 -358.1C201.6 -341.4 260.5 -333.2 300.7 -300.7C340.9 -268.2 362.3 -211.5 379.9 -157.4C397.6 -103.2 411.4 -51.6 425.3 0L0 0Z" fill="#0f7ba2"></path><path d="M0 -364.5C40.8 -342.9 81.5 -321.3 127.1 -307C172.8 -292.6 223.3 -285.6 257.7 -257.7C292.2 -229.9 310.6 -181.3 325.7 -134.9C340.8 -88.5 352.6 -44.2 364.5 0L0 0Z" fill="#0d6c91"></path><path d="M0 -303.7C34 -285.7 67.9 -267.7 106 -255.8C144 -243.9 186.1 -238 214.8 -214.8C243.5 -191.6 258.8 -151.1 271.4 -112.4C284 -73.7 293.9 -36.9 303.8 0L0 0Z" fill="#0a5e81"></path><path d="M0 -243C27.2 -228.6 54.3 -214.2 84.8 -204.6C115.2 -195.1 148.9 -190.4 171.8 -171.8C194.8 -153.3 207 -120.9 217.1 -89.9C227.2 -59 235.1 -29.5 243 0L0 0Z" fill="#075070"></path><path d="M0 -182.2C20.4 -171.4 40.8 -160.6 63.6 -153.5C86.4 -146.3 111.6 -142.8 128.9 -128.9C146.1 -115 155.3 -90.7 162.8 -67.4C170.4 -44.2 176.3 -22.1 182.3 0L0 0Z" fill="#044360"></path><path d="M0 -121.5C13.6 -114.3 27.2 -107.1 42.4 -102.3C57.6 -97.5 74.4 -95.2 85.9 -85.9C97.4 -76.6 103.5 -60.4 108.6 -45C113.6 -29.5 117.5 -14.7 121.5 0L0 0Z" fill="#013651"></path><path d="M0 -60.7C6.8 -57.1 13.6 -53.5 21.2 -51.2C28.8 -48.8 37.2 -47.6 43 -43C48.7 -38.3 51.8 -30.2 54.3 -22.5C56.8 -14.7 58.8 -7.4 60.8 0L0 0Z" fill="#003049"></path></g></svg>