<svg id="visual" viewBox="0 0 1980 1080" width="1980" height="1080" xmlns="http://www.w3.org/2000/svg" xmlns:xlink="http://www.w3.org/1999/xlink" version="1.1"><g><g transform="translate(1087 497)"><path d="M269 -84.7C305.4 24.6 261.9 162.6 167.1 232C72.2 301.4 -74 302.2 -170.9 232.4C-267.9 162.6 -315.7 22.3 -279 -87.5C-242.4 -197.2 -121.2 -276.4 -2.5 -275.6C116.3 -274.8 232.6 -194.1 269 -84.7Z" fill="#669BBC"></path></g><g transform="translate(151 755)"><path d="M106.6 -32.5C124.4 20.2 115.6 83.6 77.2 113.1C38.8 142.6 -29.2 138.2 -75.5 104.4C-121.8 70.7 -146.4 7.6 -130.2 -42.9C-114 -93.4 -57 -131.3 -6.3 -129.2C44.4 -127.2 88.8 -85.2 106.6 -32.5Z" fill="#669BBC"></path></g><g transform="translate(1967 115)"><path d="M102.6 -31.2C118.3 15 106.2 72.3 71.1 97.8C35.9 123.4 -22.3 117.2 -61.1 88.1C-99.9 59 -119.2 7 -105.8 -36.1C-92.3 -79.2 -46.2 -113.3 -1.4 -112.9C43.4 -112.4 86.9 -77.4 102.6 -31.2Z" fill="#669BBC"></path></g><g transform="translate(1943 1065)"><path d="M310.4 -105.2C348.9 17.6 289.9 167.8 186.7 238.4C83.4 309 -64.1 300.2 -155.3 230C-246.6 159.9 -281.5 28.6 -246.2 -89.8C-210.9 -208.2 -105.5 -313.6 15.2 -318.6C136 -323.5 271.9 -228 310.4 -105.2Z" fill="#669BBC"></path></g></g></svg>